Video: 720x304 @bitrate 1700 2pass
Audio: English AC3 2.0 Stereo
Sample:yes included

 
http://www.imdb.com/title/tt0903624/


General
Complete name                  : The.Hobbit.2012.DVDScr.XVID.AC3.HQ.Hive-CM8.avi
Format                         : AVI
Format/Info                    : Audio Video Interleave
Format profile                 : OpenDML
Format settings                : rec
File size                      : 2.32 GiB
Duration                       : 2h 49mn
Overall bit rate               : 1 959 Kbps
Writing application            : AVI-Mux GUI 1.17.7, Aug  8 2006  20:59:17

Video
ID                             : 0
Format                         : MPEG-4 Visual
Format profile                 : Advanced Simple@L5
Format settings, BVOP          : 2
Format settings, QPel          : Yes
Format settings, GMC           : No warppoints
Format settings, Matrix        : Default (H.263)
Muxing mode                    : Packed bitstream
Codec ID                       : XVID
Codec ID/Hint                  : XviD
Duration                       : 2h 49mn
Bit rate                       : 1 697 Kbps
Width                          : 720 pixels
Height                         : 304 pixels
Display aspect ratio           : 2.35:1
Frame rate                     : 29.534 fps
Original frame rate            : 29.547 fps
Color space                    : YUV
Chroma subsampling             : 4:2:0
Bit depth                      : 8 bits
Scan type                      : Progressive
Compression mode               : Lossy
Bits/(Pixel*Frame)             : 0.263
Stream size                    : 2.01 GiB (87%)
Writing library                : XviD 1.2.1 (UTC 2008-12-04)

Audio
ID                             : 1
Format                         : AC-3
Format/Info                    : Audio Coding 3
Mode extension                 : CM (complete main)
Format settings, Endianness    : Big
Codec ID                       : 2000
Duration                       : 2h 49mn
Bit rate mode                  : Constant
Bit rate                       : 256 Kbps
Channel(s)                     : 2 channels
Channel positions              : Front: L R
Sampling rate                  : 48.0 KHz
Bit depth                      : 16 bits
Compression mode               : Lossy
Stream size                    : 310 MiB (13%)
Alignment                      : Split accross interleaves
Interleave, duration           : 64 ms (1.89 video frames)
Interleave, preload duration   : 192 ms


Plot:

A younger and more reluctant Hobbit, Bilbo Baggins, sets out on a "unexpected journey" to the Lonely Mountain with a spirited group of Dwarves to reclaim a their stolen mountain home from a dragon named Smaug. 

Cast:

Ian McKellen	... Gandalf
Martin Freeman	... Bilbo
Richard Armitage	... Thorin
Ken Stott	... Balin
Graham McTavish	... Dwalin


 
http://img839.imageshack.us/img839/3131/32848213.png 
http://img694.imageshack.us/img694/2394/11898393.png 
http://img23.imageshack.us/img23/5702/98424810.png 
http://img69.imageshack.us/img69/9976/92894270.png 
http://img39.imageshack.us/img39/4150/57852797.png